<svg id="washu-logo" role="img" data-name="one-color logo" xmlns="http://www.w3.org/2000/svg" viewBox="0 0 50 56">
  <title>WashU, main</title>
  <defs>
    <style>
      .washu-logo-b, .washu-logo-c, .washu-logo-d {
        stroke-width: 0px;
      }

      .washu-logo-c {
        fill: #2c5234;
      }

      .washu-logo-d {
        fill: #ba0c2f;
      }
    </style>
  </defs>
  <path class="washu-logo-d" d="m47.15,28.06c-.92.18-4.74.92-9.5,1.57-.11.01-.2-.07-.2-.17v-5.25c0-.09.07-.16.15-.17,4.91-.67,8.84-1.43,9.62-1.59.08-.02.14-.09.14-.17v-5.23c0-.11-.1-.19-.21-.17-.92.18-4.74.92-9.5,1.57-.11.01-.2-.07-.2-.17v-1.76c0-.11-.11-.2-.22-.17-4.68,1.2-7.64.18-12.64,2.54-.05.02-.1.02-.15,0-5.01-2.35-7.96-1.34-12.64-2.54-.11-.03-.22.05-.22.17v1.76c0,.11-.09.19-.2.17-4.76-.65-8.58-1.39-9.5-1.57-.11-.02-.21.06-.21.17v5.23c0,.08.06.16.14.17.78.15,4.71.92,9.61,1.59.09.01.15.09.15.17v5.25c0,.11-.09.19-.2.17-4.76-.65-8.58-1.39-9.5-1.57-.11-.02-.21.06-.21.17v5.23c0,.08.06.16.14.17,1.12.22,8.81,1.72,16.51,2.35,2.32.26,3.51.5,5.08,1.47l1.01.62c.06.03.13.03.18,0l1.01-.62c1.57-.97,2.75-1.21,5.03-1.46,7.9-.64,15.77-2.2,16.63-2.37.05,0,.08-.05.08-.1v-5.29c0-.11-.1-.19-.21-.17Zm-11.8-9.08v14.21c0,.09-.07.16-.15.17-5.67.73-7.71.49-10.59,2.24-.06.03-.13.03-.18,0-2.88-1.75-4.92-1.51-10.59-2.24-.09-.01-.15-.09-.15-.17v-14.21c0-.11.1-.19.2-.17,3.03.46,6.7.03,10.55,2.3.05.03.12.03.18,0,3.85-2.27,7.51-1.83,10.55-2.3.11-.02.2.06.2.17Z"></path>
  <path class="washu-logo-c" d="m23.58,10.04l.77-2.29c.05-.16.28-.16.33,0l.77,2.29c.02.07.09.12.16.12l2.4.02c.17,0,.24.22.1.32l-1.93,1.43c-.06.04-.09.12-.06.19l.72,2.3c.05.16-.13.29-.27.2l-1.96-1.4c-.06-.04-.14-.04-.2,0l-1.96,1.4c-.14.1-.32-.03-.27-.2l.72-2.3c.02-.07,0-.15-.06-.19l-1.93-1.43c-.14-.1-.07-.31.1-.32l2.41-.02c.07,0,.14-.05.16-.12Zm-15.12-1.32l.79-2.27c.05-.16.28-.16.33,0l.79,2.27c.02.07.09.12.16.12l2.4.05c.17,0,.23.21.1.31l-1.92,1.45c-.06.04-.08.12-.06.19l.7,2.3c.05.16-.13.29-.27.19l-1.97-1.37c-.06-.04-.14-.04-.2,0l-1.97,1.37c-.14.09-.32-.04-.27-.19l.7-2.3c.02-.07,0-.15-.06-.19l-1.92-1.45c-.13-.1-.06-.31.1-.31l2.4-.05c.07,0,.14-.05.16-.12Zm30.19,0l.79-2.27c.05-.16.28-.16.33,0l.79,2.27c.02.07.09.12.16.12l2.4.05c.17,0,.23.21.1.31l-1.92,1.45c-.06.04-.08.12-.06.19l.7,2.3c.05.16-.13.29-.27.19l-1.97-1.37c-.06-.04-.14-.04-.2,0l-1.97,1.37c-.14.09-.32-.04-.27-.19l.7-2.3c.02-.07,0-.15-.06-.19l-1.92-1.45c-.13-.1-.06-.31.1-.31l2.4-.05c.07,0,.14-.05.16-.12Zm-15.9,34.84c0,1.5.66,2.65,1.09,3.78.02.04-.04.07-.06.03,0,0-1.03-2.38-2.66-2.38-1.09,0-1.74.83-1.74,1.56,0,.61.41.99.79,1.01.4.02.74-.28.78-.67,0-.06.04-.11.09-.13.15-.08.51-.17,1.18.13.94.43,1.83,1.85,1.83,1.85.03.06.02.13-.02.18l-.28.29c-.23.23-.22.59,0,.82l.64.65c.07.07.18.07.25,0l.64-.65c.22-.23.24-.58,0-.82l-.28-.29s-.06-.12-.02-.18c0,0,.88-1.42,1.83-1.85.67-.31,1.03-.21,1.18-.13.05.03.08.08.09.13.04.39.38.69.78.67.37-.02.79-.4.79-1.01,0-.73-.64-1.56-1.74-1.56-1.63,0-2.66,2.38-2.66,2.38-.02.04-.08.01-.06-.03.43-1.13,1.09-2.35,1.09-3.78,0-1.2-1.24-2.51-1.64-2.9-.07-.07-.17-.07-.24,0-.4.38-1.64,1.65-1.64,2.9Zm15.47-4.01c0,1.18.52,2.08.86,2.97.01.03-.03.05-.05.02,0,0-.81-1.87-2.09-1.87-.86,0-1.36.65-1.36,1.23,0,.48.32.77.62.79.31.02.58-.21.61-.51,0-.06.05-.11.1-.13.13-.06.41-.11.9.12.74.34,1.43,1.45,1.43,1.45.02.05.02.1-.02.14l-.22.23c-.18.18-.17.46,0,.64l.48.48c.07.07.18.07.25,0l.48-.48c.17-.18.19-.45,0-.64l-.22-.23s-.04-.09-.02-.14c0,0,.69-1.11,1.43-1.45.49-.22.77-.17.9-.12.05.02.09.07.1.13.04.3.3.53.61.51.29-.02.62-.32.62-.79,0-.58-.5-1.23-1.36-1.23-1.28,0-2.09,1.87-2.09,1.87-.02.03-.06,0-.05-.02.34-.89.86-1.85.86-2.97,0-.92-.92-1.92-1.26-2.25-.07-.07-.18-.07-.24,0-.34.32-1.26,1.3-1.26,2.25Zm-30.19,0c0,1.18.52,2.08.86,2.97.01.03-.03.05-.05.02,0,0-.81-1.87-2.09-1.87-.86,0-1.36.65-1.36,1.23,0,.48.32.77.62.79.31.02.58-.21.61-.51,0-.06.05-.11.1-.13.13-.06.41-.11.9.12.74.34,1.43,1.45,1.43,1.45.02.05.02.1-.02.14l-.22.23c-.18.18-.17.46,0,.64l.48.48c.07.07.18.07.25,0l.48-.48c.17-.18.19-.45,0-.64l-.22-.23s-.04-.09-.02-.14c0,0,.69-1.11,1.43-1.45.49-.22.77-.17.9-.12.05.02.09.07.1.13.04.3.3.53.61.51.29-.02.62-.32.62-.79,0-.58-.5-1.23-1.36-1.23-1.28,0-2.09,1.87-2.09,1.87-.02.03-.06,0-.05-.02.34-.89.86-1.85.86-2.97,0-.92-.92-1.92-1.26-2.25-.07-.07-.18-.07-.24,0-.34.32-1.26,1.3-1.26,2.25ZM49,.2c0-.11-.1-.19-.21-.17-1.71.36-13.31,2.72-24.28,2.72C12.89,2.75,1.88.38.22,0,.11-.02,0,.06,0,.17c0,2.97.02,35.13.02,41.2s6,7.98,24.43,14.62c.04.01.08.01.12,0,18.43-6.63,24.43-8.27,24.43-14.62V.2Zm-2.09,40.32c0,5.81-5.5,7.3-22.35,13.36-.04.01-.08.01-.12,0-16.85-6.06-22.34-7.56-22.34-13.36V2.82c0-.11.1-.19.21-.17,1.7.33,13.27,2.53,22.2,2.53,8.42,0,20.47-2.18,22.2-2.51.11-.02.21.06.21.17v37.68Z"></path>
</svg>