<svg id="logosandtypes_com" xmlns="http://www.w3.org/2000/svg" viewBox="0 0 150 150"><path d="M0 0h150v150H0V0z" fill="none"/><path d="M75.4 136.1c34.9-12.3 60.7-45.5 60.7-92.8V21.6s-30.1-6.7-60.7-6.7-60.7 6.7-60.7 6.7v21.7c0 47.3 25.8 80.4 60.7 92.8" fill="#9e7e36"/><path d="M75.4 48.5c3.7-4.5 7.7-8.7 12-12.5 4.9-4.4 10.2-8.2 15.7-11.5-8.6-.9-18.2-1.6-27.8-1.6l.1 25.6zM80.4 55c6.7 9.6 11.9 20.3 15.4 31.7 4.3-14.8 12.7-28.2 24.2-38.4 2.6-2.3 5.4-4.4 8.2-6.4V28c-2.9-.5-6.8-1.2-11.3-1.9-14.2 6.6-26.7 16.5-36.5 28.9M112.3 98.3c8.9-13 14.2-28.8 15.5-46.2-13.8 11.1-23.7 27.5-26.6 46.7-.7 4.4-.9 8.8-.8 13.2 4.4-4.1 8.4-8.7 11.9-13.7M75.4 127.6c6.1-2.4 11.9-5.5 17.2-9.3-.1-4.8-.4-9.6-1.1-14.4-2.3-15.6-8-29.8-16-42v65.7z"/><path d="M75.4 61.9V48.5c-3.7-4.5-7.7-8.7-12-12.5-4.9-4.4-10.2-8.2-15.7-11.5 8.6-.9 18.2-1.6 27.8-1.6v-8c-30.6 0-60.7 6.7-60.7 6.7v21.7c0 47.4 25.8 80.5 60.7 92.8v-8.5c-6.2-2.4-11.9-5.5-17.2-9.2 0-4.8.4-9.6 1.1-14.5 2.3-15.6 7.9-29.8 16-42M34 26.2C48.1 32.7 60.7 42.6 70.5 55c-6.7 9.6-11.9 20.3-15.4 31.7-4.3-14.8-12.7-28.2-24.2-38.4-2.6-2.3-5.4-4.5-8.3-6.4V28.1c3-.6 6.9-1.2 11.4-1.9m4.5 72.1C29.6 85.3 24.3 69.5 23 52c13.8 11.1 23.8 27.5 26.6 46.8.7 4.5.9 8.9.8 13.2-4.4-4.1-8.4-8.7-11.9-13.7"/></svg>